<svg width="64" height="64" viewBox="0 0 64 64" fill="none" xmlns="http://www.w3.org/2000/svg">
<path d="M54.0001 55.9999C53.7374 56.0004 53.4772 55.9488 53.2346 55.8481C52.9919 55.7475 52.7716 55.5999 52.5863 55.4137L8.5863 11.4137C8.22706 11.0356 8.02975 10.5321 8.03642 10.0105C8.0431 9.48901 8.25324 8.99072 8.62204 8.62192C8.99085 8.25312 9.48913 8.04297 10.0107 8.0363C10.5322 8.02962 11.0357 8.22694 11.4138 8.58618L55.4138 52.5862C55.6933 52.8659 55.8837 53.2222 55.9607 53.61C56.0378 53.9978 55.9982 54.3998 55.8469 54.7652C55.6956 55.1305 55.4394 55.4428 55.1107 55.6626C54.782 55.8823 54.3955 55.9997 54.0001 55.9999ZM31.9576 47.9999C26.7713 47.9999 21.7701 46.4649 17.0926 43.4374C12.8338 40.6874 9.00005 36.7487 6.00505 32.0624V32.0524C8.49755 28.4812 11.2276 25.4612 14.1601 23.0262C14.1866 23.004 14.2082 22.9766 14.2236 22.9456C14.239 22.9146 14.2478 22.8808 14.2494 22.8463C14.2511 22.8117 14.2455 22.7772 14.2332 22.7449C14.2208 22.7126 14.2019 22.6833 14.1776 22.6587L11.6876 20.1724C11.6433 20.1278 11.5839 20.1015 11.5211 20.0987C11.4583 20.0959 11.3968 20.1169 11.3488 20.1574C8.2338 22.7824 5.34255 26.0024 2.7138 29.7724C2.26153 30.4216 2.01245 31.1905 1.99821 31.9815C1.98396 32.7725 2.2052 33.5499 2.6338 34.2149C5.93505 39.3812 10.1838 43.7324 14.9188 46.7962C20.2501 50.2499 25.9876 51.9999 31.9576 51.9999C35.18 51.99 38.3796 51.459 41.4326 50.4274C41.4728 50.4138 41.509 50.3901 41.5375 50.3585C41.5661 50.327 41.5861 50.2887 41.5957 50.2473C41.6054 50.2059 41.6043 50.1627 41.5926 50.1218C41.5809 50.0809 41.5589 50.0437 41.5288 50.0137L38.8313 47.3162C38.7692 47.2556 38.6924 47.2122 38.6085 47.1903C38.5245 47.1684 38.4363 47.1687 38.3526 47.1912C36.2635 47.7291 34.1148 48.0009 31.9576 47.9999ZM61.3551 29.8249C58.0476 24.7099 53.7563 20.3649 48.9463 17.2587C43.6251 13.8187 37.7501 11.9999 31.9576 11.9999C28.7693 12.0055 25.6046 12.5476 22.5963 13.6037C22.5562 13.6176 22.5203 13.6415 22.4921 13.6732C22.4638 13.7048 22.444 13.7432 22.4346 13.7845C22.4253 13.8259 22.4266 13.869 22.4385 13.9098C22.4503 13.9505 22.4724 13.9876 22.5026 14.0174L25.1963 16.7112C25.259 16.7728 25.3369 16.8168 25.422 16.8388C25.5072 16.8607 25.5966 16.8598 25.6813 16.8362C27.7275 16.2826 29.8378 16.0014 31.9576 15.9999C37.0438 15.9999 42.0301 17.5537 46.7763 20.6249C51.1151 23.4249 54.9938 27.3599 57.9963 31.9999C57.9985 32.0028 57.9997 32.0063 57.9997 32.0099C57.9997 32.0135 57.9985 32.0171 57.9963 32.0199C55.8169 35.4511 53.1123 38.5189 49.9813 41.1112C49.9545 41.1333 49.9326 41.1607 49.917 41.1917C49.9014 41.2228 49.8924 41.2567 49.8906 41.2914C49.8888 41.3261 49.8943 41.3608 49.9067 41.3933C49.9191 41.4257 49.9381 41.4552 49.9626 41.4799L52.4501 43.9662C52.4941 44.0106 52.5532 44.0369 52.6156 44.04C52.6781 44.043 52.7395 44.0224 52.7876 43.9824C56.1301 41.168 59.0234 37.86 61.3676 34.1724C61.7819 33.5226 62.001 32.7675 61.9988 31.9968C61.9965 31.2262 61.7731 30.4723 61.3551 29.8249Z" fill="#4A4033"/>
<path d="M32.0001 20C31.1012 19.9996 30.2052 20.1003 29.3288 20.3C29.2846 20.3092 29.2436 20.3302 29.2104 20.3608C29.1771 20.3914 29.1528 20.4305 29.1399 20.4739C29.1271 20.5172 29.1263 20.5632 29.1375 20.607C29.1488 20.6508 29.1717 20.6907 29.2038 20.7225L43.2776 34.7925C43.3094 34.8246 43.3493 34.8476 43.3931 34.8588C43.4369 34.8701 43.4829 34.8692 43.5262 34.8564C43.5696 34.8436 43.6086 34.8192 43.6393 34.786C43.6699 34.7527 43.6909 34.7118 43.7001 34.6675C44.1008 32.9101 44.1004 31.0849 43.699 29.3276C43.2976 27.5703 42.5054 25.9261 41.3813 24.5169C40.2573 23.1078 38.8302 21.97 37.2061 21.188C35.582 20.406 33.8026 20 32.0001 20ZM20.7226 29.2075C20.6908 29.1754 20.6509 29.1524 20.6071 29.1412C20.5633 29.1299 20.5173 29.1308 20.4739 29.1436C20.4306 29.1564 20.3915 29.1808 20.3609 29.214C20.3303 29.2473 20.3093 29.2882 20.3001 29.3325C19.8468 31.3129 19.9037 33.376 20.4655 35.3285C21.0273 37.2809 22.0757 39.0587 23.5123 40.4953C24.9489 41.9319 26.7267 42.9802 28.6791 43.5421C30.6315 44.1039 32.6947 44.1608 34.6751 43.7075C34.7194 43.6983 34.7603 43.6773 34.7936 43.6467C34.8268 43.6161 34.8512 43.577 34.864 43.5336C34.8768 43.4903 34.8776 43.4443 34.8664 43.4005C34.8551 43.3567 34.8322 43.3168 34.8001 43.285L20.7226 29.2075Z" fill="#4A4033"/>
</svg>
