<svg width="64" height="49" viewBox="0 0 64 49" fill="none" xmlns="http://www.w3.org/2000/svg">
<path d="M16.2878 38.2993C21.8846 42.6769 26.5886 44.0785 31.9998 44.0785C36.707 44.0785 42.851 42.1169 48.7614 37.9377C53.0238 34.9233 56.547 30.5297 59.3214 24.7217C56.3134 19.5014 52.8328 15.2209 48.8798 11.8801C43.4078 7.2465 37.4174 5.1217 31.8814 5.1217C26.1534 5.1217 19.5614 7.6753 13.9358 13.0385C9.8867 16.8998 6.8147 20.7804 4.71977 24.6801C8.12884 30.4017 11.987 34.9414 16.2878 38.2993ZM31.9998 48.6001C25.683 48.6001 20.0478 46.9201 13.6286 41.8993C8.58324 37.9526 4.14164 32.6193 0.303771 25.8993C0.115176 25.571 0.010384 25.2013 -0.00133686 24.8229C-0.0130577 24.4445 0.0686538 24.069 0.236571 23.7297C2.5875 18.9553 6.15657 14.2865 10.9438 9.7233C17.4014 3.5697 25.0654 0.600098 31.8814 0.600098C38.419 0.600098 45.395 3.0801 51.6702 8.3889C56.3059 12.3142 60.3198 17.351 63.7118 23.4993C64.0638 24.1329 64.0958 24.9041 63.7982 25.5633C60.6366 32.6033 56.4542 37.9857 51.251 41.6657C44.6078 46.3601 37.5966 48.6001 31.9966 48.6001M32.7454 37.0801C31.1905 37.0801 29.6509 36.7738 28.2144 36.1788C26.7779 35.5838 25.4727 34.7117 24.3732 33.6122C23.2738 32.5128 22.4017 31.2076 21.8066 29.7711C21.2116 28.3346 20.9054 26.7949 20.9054 25.2401C20.9054 23.6852 21.2116 22.1456 21.8066 20.7091C22.4017 19.2726 23.2738 17.9674 24.3732 16.868C25.4727 15.7685 26.7779 14.8964 28.2144 14.3014C29.6509 13.7063 31.1905 13.4001 32.7454 13.4001C35.8855 13.4001 38.8971 14.6475 41.1175 16.868C43.3379 19.0884 44.5854 22.0999 44.5854 25.2401C44.5854 28.3803 43.3379 31.3918 41.1175 33.6122C38.8971 35.8327 35.8855 37.0801 32.7454 37.0801ZM32.7454 32.6001C33.7119 32.6001 34.669 32.4097 35.5619 32.0399C36.4549 31.67 37.2662 31.1278 37.9497 30.4444C38.6331 29.761 39.1752 28.9496 39.5451 28.0566C39.915 27.1637 40.1054 26.2066 40.1054 25.2401C40.1054 24.2736 39.915 23.3165 39.5451 22.4235C39.1752 21.5306 38.6331 20.7192 37.9497 20.0358C37.2662 19.3524 36.4549 18.8102 35.5619 18.4403C34.669 18.0705 33.7119 17.8801 32.7454 17.8801C30.7934 17.8801 28.9213 18.6555 27.5411 20.0358C26.1608 21.4161 25.3854 23.2881 25.3854 25.2401C25.3854 27.1921 26.1608 29.0641 27.5411 30.4444C28.9213 31.8247 30.7934 32.6001 32.7454 32.6001Z" fill="#4A4033"/>
</svg>
